<?xml version="1.0" standalone="no"?>
<!DOCTYPE svg PUBLIC "-//W3C//DTD SVG 20010904//EN"
 "http://www.w3.org/TR/2001/REC-SVG-20010904/DTD/svg10.dtd">
<svg version="1.0" xmlns="http://www.w3.org/2000/svg"
 width="804.000000pt" height="720.000000pt" viewBox="0 0 804.000000 720.000000"
 preserveAspectRatio="xMidYMid meet">

<g transform="translate(0.000000,720.000000) scale(0.100000,-0.100000)"
fill="#ffffff" stroke="none">
<path d="M3900 6760 c-47 -5 -116 -13 -155 -19 -38 -6 -111 -15 -161 -21 -50
-5 -118 -17 -150 -26 -33 -9 -81 -20 -109 -25 -27 -4 -68 -15 -90 -23 -22 -8
-54 -15 -71 -16 -17 0 -43 -9 -57 -20 -14 -11 -49 -25 -77 -30 -28 -5 -64 -16
-78 -25 -15 -8 -46 -19 -68 -25 -23 -5 -47 -17 -54 -25 -7 -8 -21 -15 -32 -15
-18 0 -114 -40 -148 -61 -19 -11 -46 -24 -87 -39 -29 -11 -31 -14 -21 -36 10
-22 8 -28 -23 -54 -19 -17 -47 -37 -64 -46 -16 -9 -51 -34 -77 -55 -26 -22
-51 -39 -57 -39 -6 0 -23 -12 -39 -27 -16 -16 -51 -46 -78 -68 -52 -43 -104
-94 -169 -166 -34 -38 -39 -49 -34 -74 4 -17 7 -24 8 -17 0 7 13 18 29 24 27
12 38 21 89 69 46 43 156 119 173 119 9 0 27 11 40 25 13 14 29 25 35 25 7 0
20 9 30 20 10 11 24 20 31 20 7 0 19 6 26 13 21 21 55 37 78 37 34 0 20 -33
-18 -45 -17 -5 -32 -13 -32 -17 0 -4 -15 -15 -32 -24 -18 -9 -39 -25 -46 -35
-7 -11 -21 -19 -32 -19 -10 0 -33 -15 -52 -32 -18 -18 -59 -56 -90 -84 -59
-53 -62 -66 -15 -83 l27 -11 -20 -22 c-51 -56 -67 -71 -105 -98 -75 -53 -335
-342 -335 -372 0 -8 -5 -19 -12 -26 -7 -7 -8 -12 -2 -12 6 0 15 5 22 12 6 6
15 8 19 3 5 -4 2 -10 -4 -12 -7 -3 -13 -13 -13 -23 0 -10 -10 -31 -23 -47 -33
-41 -77 -108 -77 -117 0 -5 -11 -21 -25 -38 -14 -16 -25 -35 -25 -43 0 -7 -7
-18 -14 -25 -8 -6 -20 -28 -27 -48 -7 -20 -20 -47 -30 -60 -10 -13 -21 -37
-25 -55 -3 -18 -15 -43 -25 -56 -11 -13 -19 -32 -19 -43 0 -10 -9 -32 -21 -47
-18 -25 -24 -50 -29 -133 0 -5 -6 -8 -14 -8 -21 0 -25 -11 -33 -77 -3 -32 -12
-62 -20 -68 -16 -12 -26 -55 -25 -110 0 -26 -7 -47 -19 -60 -15 -17 -19 -41
-23 -122 -3 -76 -9 -108 -23 -129 -15 -24 -18 -51 -20 -177 -2 -124 0 -149 13
-154 8 -3 16 -4 18 -2 2 2 6 73 9 158 3 88 9 156 15 160 11 7 32 139 32 203 0
23 7 49 15 58 16 18 35 102 35 156 0 19 4 34 9 34 12 0 41 74 41 104 0 13 6
29 14 35 8 7 18 27 22 44 3 18 17 50 30 73 13 22 24 50 24 61 0 11 9 30 19 42
11 13 23 35 26 51 3 16 12 31 20 33 7 3 19 23 26 44 6 21 20 49 29 63 10 14
52 77 94 140 111 165 120 177 189 257 67 78 211 225 280 285 121 107 351 278
374 278 3 0 20 11 37 23 17 13 47 29 68 36 20 7 39 18 42 26 3 8 13 15 22 15
9 0 37 11 63 24 91 49 130 65 168 72 21 3 47 14 58 24 11 10 38 23 60 30 22 7
45 16 50 20 6 4 33 13 60 19 28 7 59 17 70 21 21 9 51 15 150 30 34 5 85 18
115 28 69 25 508 59 621 48 41 -4 115 -11 164 -15 171 -16 290 -32 330 -46 22
-8 63 -17 90 -20 28 -4 60 -13 71 -20 12 -8 48 -21 80 -28 62 -15 128 -37 204
-68 25 -10 56 -21 70 -25 14 -3 32 -12 40 -19 8 -7 33 -18 55 -25 22 -7 47
-19 56 -26 8 -8 31 -19 49 -26 19 -6 54 -25 78 -42 73 -52 126 -85 152 -96 13
-6 43 -26 65 -44 22 -18 55 -41 73 -50 17 -9 32 -21 32 -26 0 -6 12 -16 28
-22 52 -23 398 -369 462 -462 14 -20 46 -64 73 -97 26 -33 47 -65 47 -70 0 -5
8 -22 19 -37 91 -133 121 -182 121 -203 0 -9 9 -24 19 -33 11 -10 23 -32 27
-50 3 -17 15 -40 25 -51 10 -12 21 -39 24 -60 4 -22 15 -52 26 -67 10 -15 19
-40 19 -56 0 -16 9 -40 20 -54 10 -14 23 -52 29 -85 5 -34 18 -78 29 -100 11
-21 23 -70 27 -108 4 -39 14 -82 21 -97 27 -53 37 -560 16 -798 -6 -63 -21
-154 -35 -202 -13 -48 -22 -90 -19 -93 3 -2 -2 -24 -10 -47 -8 -24 -21 -68
-28 -98 -7 -30 -19 -64 -26 -75 -7 -11 -18 -42 -24 -69 -6 -27 -20 -61 -30
-76 -11 -15 -21 -36 -23 -46 -2 -11 -12 -37 -22 -59 -10 -22 -19 -45 -21 -50
-1 -6 -13 -28 -28 -49 -14 -21 -23 -42 -21 -47 3 -4 -5 -15 -17 -23 -12 -9
-19 -16 -15 -16 15 0 -123 -227 -162 -266 -11 -11 -24 -30 -28 -42 -14 -38
-399 -442 -422 -442 -7 0 -9 -4 -6 -10 3 -5 2 -10 -3 -10 -5 0 -36 -21 -69
-47 -33 -27 -75 -57 -94 -68 -62 -37 -97 -60 -182 -117 -46 -32 -91 -58 -99
-58 -9 0 -26 -8 -39 -19 -13 -10 -35 -22 -49 -26 -14 -4 -36 -16 -49 -26 -13
-11 -29 -19 -35 -19 -6 0 -38 -14 -71 -30 -33 -16 -68 -30 -78 -30 -11 0 -31
-7 -45 -15 -34 -18 -204 -75 -226 -75 -9 0 -33 -8 -54 -19 -20 -10 -69 -21
-109 -25 -39 -4 -98 -17 -130 -28 -55 -21 -75 -22 -448 -22 -337 0 -396 3
-435 17 -25 9 -88 21 -140 27 -52 6 -104 17 -116 25 -12 8 -51 19 -86 25 -70
11 -170 43 -206 67 -13 8 -49 21 -79 29 -66 17 -371 165 -413 200 -16 14 -51
37 -77 50 -50 27 -84 53 -162 122 -26 23 -53 42 -60 42 -7 0 -34 22 -60 50
-26 27 -52 50 -58 50 -17 0 -246 232 -254 258 -2 4 -13 15 -26 25 -13 10 -23
23 -23 28 0 12 -95 144 -140 194 -20 22 -51 72 -70 110 -18 39 -37 72 -41 75
-4 3 -15 25 -25 50 -9 25 -22 50 -28 55 -6 6 -12 17 -14 25 -2 7 -14 37 -27
64 -13 28 -38 85 -55 126 -17 41 -40 95 -50 120 -11 25 -24 71 -29 103 -6 31
-15 65 -20 75 -5 10 -13 43 -17 73 -4 30 -15 80 -25 112 -10 32 -21 105 -24
165 -3 59 -8 132 -12 162 -5 50 -6 53 -16 30 -5 -14 -14 -68 -18 -120 -12
-137 -14 -151 -33 -192 -19 -44 -20 -93 -5 -205 11 -72 10 -85 -5 -107 -14
-22 -15 -38 -7 -106 5 -47 15 -88 24 -98 19 -21 39 -95 31 -115 -3 -9 -12 -18
-20 -21 -17 -7 -34 30 -34 74 0 39 -28 48 -41 12 -6 -15 -17 -34 -25 -43 -21
-23 -15 -113 7 -117 10 -2 19 5 22 18 7 29 28 25 24 -5 -1 -13 -6 -27 -10 -31
-11 -11 -8 -62 3 -69 12 -7 40 18 40 35 0 6 5 8 10 5 15 -9 12 -48 -6 -83 -15
-31 -12 -52 6 -52 5 0 12 11 16 25 11 46 54 23 54 -30 0 -19 7 -35 20 -43 21
-13 27 -56 10 -67 -5 -3 -10 -18 -10 -33 1 -23 2 -25 11 -9 15 25 44 21 58
-10 7 -15 21 -33 32 -41 10 -7 19 -21 19 -31 0 -10 11 -28 25 -41 14 -13 25
-31 25 -40 0 -8 9 -23 20 -33 11 -9 20 -25 20 -36 0 -10 11 -26 25 -35 14 -9
25 -23 25 -31 0 -8 9 -19 20 -25 22 -12 25 -31 9 -58 -14 -23 8 -76 53 -123
57 -61 88 -101 88 -113 0 -14 251 -266 266 -266 6 0 19 -9 30 -21 10 -12 35
-29 54 -39 19 -10 46 -30 60 -45 14 -15 44 -36 68 -46 24 -11 63 -35 86 -54
24 -19 47 -35 52 -35 5 0 26 -11 46 -25 20 -14 43 -25 51 -25 7 0 28 -11 47
-25 19 -14 41 -25 51 -25 9 0 27 -8 40 -19 13 -10 35 -22 49 -26 14 -4 37 -16
51 -26 15 -10 36 -20 47 -22 11 -2 27 -9 35 -16 17 -14 124 -55 201 -77 26 -7
53 -18 60 -23 10 -8 79 -27 261 -73 44 -11 121 -26 170 -34 50 -8 113 -19 140
-25 133 -25 242 -31 505 -25 151 3 298 10 325 15 28 5 91 16 140 24 50 9 104
21 120 27 30 12 39 14 129 24 27 3 57 12 65 20 9 8 39 19 66 25 61 12 165 46
223 72 23 10 50 19 59 19 14 0 108 40 166 71 39 21 54 29 107 54 30 15 64 35
75 45 11 10 32 22 47 25 14 4 34 15 44 26 9 10 21 19 27 19 22 0 93 50 376
267 84 64 329 307 380 378 19 26 47 60 63 77 15 16 53 63 85 106 52 68 82 113
153 232 12 19 32 53 46 75 13 22 31 56 40 75 8 19 35 76 60 126 24 49 44 95
44 100 0 5 8 21 18 34 9 14 25 50 34 80 24 80 47 149 69 204 10 27 19 62 19
78 0 16 11 63 24 106 25 79 39 140 57 247 6 33 13 219 16 413 4 338 1 406 -27
562 -5 30 -15 91 -21 134 -6 44 -18 90 -26 103 -9 13 -21 51 -29 86 -22 109
-87 300 -111 328 -6 8 -15 28 -19 44 -4 17 -18 46 -31 65 -12 19 -23 45 -23
57 0 12 -6 28 -13 35 -7 7 -22 34 -32 61 -10 26 -21 47 -25 47 -4 0 -11 12
-14 26 -4 14 -17 36 -29 49 -27 27 -40 46 -72 108 -14 26 -29 47 -34 47 -5 0
-14 13 -19 30 -13 36 -19 43 -104 132 -38 38 -68 75 -68 81 -1 7 -23 36 -50
66 -28 30 -50 58 -50 63 0 12 -108 119 -143 141 -15 10 -74 62 -130 116 -56
54 -113 104 -127 111 -14 7 -48 31 -76 52 -28 21 -55 38 -61 38 -5 0 -18 9
-29 21 -16 18 -81 58 -192 119 -16 9 -41 26 -57 38 -15 12 -34 22 -41 22 -8 0
-14 3 -14 8 0 4 -15 13 -32 21 -18 7 -54 24 -80 37 -26 13 -53 24 -60 24 -8 0
-30 9 -51 20 -20 11 -45 20 -55 20 -10 0 -28 7 -41 16 -30 21 -168 71 -244 89
-32 7 -66 16 -75 20 -9 4 -57 15 -107 25 -49 10 -110 23 -135 28 -25 6 -90 16
-145 22 -55 6 -134 15 -175 20 -115 13 -405 19 -500 10z m-880 -390 c-20 -13
-73 -13 -65 0 3 6 23 10 43 10 28 0 33 -3 22 -10z m-94 -31 c11 -18 -11 -31
-40 -23 -25 6 -25 7 -9 20 22 16 40 18 49 3z m-116 -59 c0 -5 -4 -10 -10 -10
-5 0 -10 5 -10 10 0 6 5 10 10 10 6 0 10 -4 10 -10z m-120 -50 c-19 -13 -30
-13 -30 0 0 6 10 10 23 10 18 0 19 -2 7 -10z m-52 -37 c-2 -12 -14 -19 -36
-21 -35 -4 -43 11 -14 27 28 17 54 13 50 -6z m-1287 -3638 c0 -6 -10 -12 -23
-13 -19 -4 -20 -2 -9 12 15 17 33 18 32 1z"/>
<path d="M3211 4876 c-13 -15 -4 -38 28 -78 20 -25 7 -48 -27 -48 -34 0 -134
43 -152 65 -7 8 -20 15 -29 15 -9 0 -31 9 -49 20 -18 11 -37 20 -44 20 -17 0
-1 -90 20 -114 30 -35 62 -111 62 -149 0 -29 10 -47 50 -93 28 -31 50 -61 50
-66 0 -5 48 -56 108 -112 188 -182 322 -319 322 -331 0 -17 57 -94 80 -108 14
-9 43 -38 65 -66 49 -62 100 -117 143 -153 42 -35 57 -73 41 -109 -6 -16 -45
-56 -87 -91 -42 -35 -90 -77 -108 -95 -27 -27 -78 -64 -133 -98 -17 -10 -29
-21 -223 -215 -172 -171 -194 -195 -207 -218 -6 -12 -29 -40 -50 -61 -38 -39
-82 -119 -95 -172 -8 -37 15 -56 44 -36 40 28 112 -13 75 -43 -8 -7 -17 -27
-21 -45 -3 -19 -17 -48 -30 -66 -13 -18 -24 -38 -24 -44 0 -7 -9 -20 -20 -30
-24 -21 -26 -43 -5 -51 16 -6 187 76 220 106 14 13 26 16 42 10 15 -6 25 -4
33 6 7 8 18 14 25 14 7 0 47 33 88 73 165 158 227 211 308 267 20 14 101 86
180 161 79 75 181 169 226 208 45 39 85 76 88 81 11 18 73 11 87 -9 7 -10 27
-25 44 -34 18 -9 50 -40 73 -69 23 -29 59 -73 81 -98 57 -64 90 -106 90 -117
0 -10 31 -45 185 -207 61 -64 113 -116 117 -116 5 0 58 -49 118 -110 76 -75
127 -117 163 -134 70 -33 93 -39 118 -31 21 7 20 7 -5 34 -15 16 -28 41 -29
57 -2 26 2 29 28 32 33 3 135 -39 155 -63 7 -8 18 -15 25 -15 7 0 29 -11 50
-25 51 -35 75 -27 65 23 -7 37 -47 116 -82 161 -10 13 -18 40 -18 62 0 31 -8
48 -42 87 -24 26 -56 65 -73 86 -50 62 -94 111 -102 111 -5 0 -27 18 -50 40
-22 22 -47 45 -55 51 -29 25 -148 156 -148 164 0 5 -6 13 -14 17 -7 4 -21 23
-30 41 -9 17 -20 32 -25 32 -5 0 -16 16 -25 35 -9 19 -21 35 -26 35 -16 0
-141 122 -157 154 -9 17 -34 49 -57 71 -23 22 -50 53 -60 69 l-18 28 49 51
c26 28 53 54 58 58 30 21 93 69 140 109 131 111 149 126 170 140 63 42 465
476 465 503 0 5 9 21 19 36 29 40 36 94 16 111 -15 13 -20 12 -36 -8 -13 -17
-24 -21 -43 -16 -33 8 -42 38 -23 78 8 17 20 42 26 56 6 14 27 50 46 80 19 30
34 61 35 68 0 19 -51 14 -85 -8 -16 -11 -36 -20 -42 -20 -7 0 -37 -16 -67 -35
-30 -19 -64 -35 -74 -35 -46 0 -95 -36 -222 -161 -139 -137 -147 -144 -221
-193 -24 -16 -79 -63 -122 -105 -85 -83 -166 -157 -199 -180 -12 -8 -49 -43
-83 -78 -34 -35 -65 -63 -69 -63 -5 0 -19 -11 -31 -25 -38 -41 -86 -18 -205
97 -32 31 -64 66 -70 79 -7 12 -29 40 -50 63 -20 23 -57 70 -81 106 -24 36
-146 166 -270 290 -202 202 -233 230 -300 263 -84 41 -92 43 -108 23z"/>
<path d="M1187 2793 c-12 -11 -8 -98 5 -111 22 -22 28 -12 28 53 0 48 -4 65
-13 65 -8 0 -17 -3 -20 -7z"/>
<path d="M1337 2234 c-9 -9 4 -35 14 -28 5 3 9 12 9 20 0 14 -12 19 -23 8z"/>
<path d="M1620 1800 c0 -5 5 -10 10 -10 6 0 10 5 10 10 0 6 -4 10 -10 10 -5 0
-10 -4 -10 -10z"/>
</g>
</svg>
