<svg class="MuiSvgIcon-root MuiSvgIcon-fontSizeSmall" focusable="false" viewBox="0 0 24 24" aria-hidden="true"><g stroke="none" stroke-width="1" fill-rule="evenodd"><g transform="translate(-708.000000, -799.000000)" fill="inherit"><g transform="translate(0.000000, 40.000000)"><g transform="translate(689.000000, 737.000000)"><g transform="translate(19.000000, 22.000000)"><path d="M14.397706,5.77895385 L14.8871962,5.28463997 C14.0690383,5.9938421 13.2607124,6.73708594 12.458707,7.49167701 L12.1588328,7.77464866 L12.0141629,7.91081547 L11.9685146,7.94769398 L11.7936465,8.0888252 L11.4783221,8.33704595 C11.3174997,8.13350494 11.1756388,7.94131116 11.0801286,7.77252105 C10.5154943,7.12927472 9.94453949,6.45695109 9.42555351,5.79739311 C9.3047611,5.58959688 9.06387857,5.17471364 8.94238389,4.96691741 C7.76536021,3.52085426 6.09112129,1.91592983 4.70200862,0.684045723 C4.00675001,0.0677490683 3.0502427,0.0450546001 3.0502427,0.0450546001 C2.80233736,-0.0343760389 2.46945596,-0.0279932197 2.5474092,0.223064336 C2.83183318,0.594686254 3.64718191,1.41877913 3.47722981,1.58969685 C3.43509292,1.63295818 3.27216363,1.46842328 3.10923434,1.30317919 C2.93928223,1.4748061 2.11059015,1.32374605 1.94766086,1.15850195 C1.69905323,1.07978051 0.466549324,0.348593113 0.21864398,0.269162474 C-0.398661396,-0.0967858267 0.433542097,2.02869297 0.958848606,2.81590734 C1.20043342,3.23149979 0.746759614,3.03008638 0.618944394,3.15845197 C0.988344426,3.44567883 1.02416078,3.73857931 1.39285853,4.02580618 C1.35072164,4.06835831 2.28616051,5.09953821 2.77565066,5.59314289 C2.77565066,5.59314289 2.98141912,5.71583486 3.47020699,6.20943955 C3.63383857,6.37397444 3.67597545,6.33142232 3.71881462,6.28887019 C3.67597545,6.33142232 3.67597545,6.33142232 3.63383857,6.37397444 C3.88174391,6.45340508 4.12403101,6.86899753 4.32979946,6.9909803 L4.24412113,7.07679376 C4.65495577,7.32005009 4.89654058,7.73493334 5.26523833,8.021451 L5.18026227,8.10726446 C5.34389385,8.27250856 5.50612086,8.43704345 5.46398397,8.47959558 L5.37900792,8.56540904 C5.50050261,8.77320526 5.91133724,9.0164616 5.82636119,9.10298426 L5.91133724,9.0164616 C6.56375669,9.67601958 7.01110996,10.2128856 7.45776095,10.7497516 C7.59470583,10.9774055 8.4844964,11.929864 9.17835045,12.659633 C9.91574595,13.4326633 10.6945761,14.2220053 11.4783221,15 C12.1939469,14.2532102 12.9208082,13.4943639 13.6504786,12.73339 C14.0030239,12.3582221 14.3555691,11.9837633 14.7060076,11.6114322 L15.201116,11.0823674 L15.4518304,10.7972682 C15.6147597,10.6327333 15.6934153,10.3823849 15.4455099,10.4611063 L15.9350001,9.96679245 C16.2608587,9.63772266 15.9708164,9.67318277 16.296675,9.34411298 C18.6956684,6.4938296 21.5174351,4.07190432 24,1.3074344 C23.3054437,1.92373105 22.7309775,2.33294068 22.1213972,3.03434159 C22.078558,2.99108026 21.993582,2.90597601 21.8306527,3.0705109 C20.8088332,4.01658655 19.7526019,5.25485348 19.0931597,5.57754045 C18.8880935,5.70023242 18.597349,5.73569252 18.1078588,6.23000641 L18.597349,5.73569252 C18.5552121,5.6931404 18.470236,5.60732694 18.470236,5.60732694 C17.7749774,6.23000641 16.9167895,6.99878152 16.2215309,7.6207518 C16.2215309,7.6207518 16.1372571,7.53564754 16.0951202,7.49238621 L15.7685594,7.8221652 C15.1449335,7.85124249 16.9821017,6.08178316 17.7553135,5.21513816 L17.5860637,5.04351124 L17.2595028,5.37329023 L17.1745268,5.28818598 L19.9478362,2.48683755 L19.2954167,3.14639553 C19.2525775,3.1038434 19.2104407,3.06058207 19.0475114,3.22511697 C19.6999308,2.56626819 20.5581187,1.78543664 21.1255621,1.0407744 C21.2456522,0.832978171 20.95561,0.869856682 20.4246852,1.32090924 L19.1191441,2.63931601 L19.034168,2.55350255 C19.3607289,2.22372356 19.8923559,1.772671 20.1767799,1.39963068 C20.29687,1.19183445 19.7224038,1.60104408 19.8431962,1.39324786 C20.0068278,1.22800376 20.1697571,1.06346886 20.2912518,0.855672639 C19.8003571,1.35069573 19.1907768,2.05209664 18.6584475,2.5038584 C18.4533813,2.62584117 18.2476128,2.74782393 18.1626368,2.66201047 C17.3901272,3.52794628 16.6098925,4.05842948 15.9083134,4.33856432 C15.6611103,4.41728576 14.8871962,5.28463997 14.397706,5.77895385"></path></g></g></g></g></g></svg>